<svg width="15" height="34" viewBox="0 0 15 34" fill="none" xmlns="http://www.w3.org/2000/svg">
<path d="M0.6 10.556L0.888 10.34C1.656 10.604 2.448 10.94 3.264 11.348C4.08 11.78 4.848 12.236 5.568 12.716C6.288 13.22 6.888 13.7 7.368 14.156L6.576 0.836H9.024L8.16 14.156C8.664 13.676 9.276 13.184 9.996 12.68C10.74 12.176 11.52 11.72 12.336 11.312C13.152 10.904 13.92 10.58 14.64 10.34L14.928 10.556C14.28 11.612 13.632 12.896 12.984 14.408C12.336 15.92 11.724 17.528 11.148 19.232C10.572 20.96 10.044 22.688 9.564 24.416C9.108 26.144 8.724 27.776 8.412 29.312C8.124 30.872 7.944 32.228 7.872 33.38H7.728C7.656 32.252 7.464 30.92 7.152 29.384C6.864 27.872 6.48 26.252 6 24.524C5.544 22.796 5.016 21.068 4.416 19.34C3.84 17.636 3.228 16.016 2.58 14.48C1.932 12.968 1.272 11.66 0.6 10.556Z" fill="white"/>
</svg>
